<svg width="1532" height="1860" viewBox="0 0 1532 1860" fill="none" xmlns="http://www.w3.org/2000/svg">
<path opacity="0.1" fill-rule="evenodd" clip-rule="evenodd" d="M947.018 1390.24C1034.19 1390.24 1104.85 1319.57 1104.85 1232.39C1104.85 1319.57 1175.52 1390.24 1262.69 1390.24C1176.15 1390.24 1105.88 1459.89 1104.87 1546.2C1105.8 1625.67 1165.47 1691.03 1242.49 1700.87C1320.76 1696.3 1382.83 1631.37 1382.83 1551.93C1382.83 1634.33 1449.62 1701.13 1532 1701.13C1449.62 1701.13 1382.83 1767.92 1382.83 1850.32C1382.83 1774.61 1326.45 1712.07 1253.39 1702.42C1170.55 1707.23 1104.85 1775.94 1104.85 1860C1104.85 1772.82 1034.19 1702.15 947.018 1702.15C859.848 1702.15 789.182 1772.82 789.182 1860C789.182 1772.82 718.515 1702.15 631.345 1702.15C544.175 1702.15 473.509 1772.82 473.509 1860C473.509 1772.82 402.843 1702.15 315.673 1702.15C228.503 1702.15 157.836 1772.82 157.836 1860C157.836 1772.82 87.1702 1702.15 0 1702.15C86.5375 1702.15 156.81 1632.5 157.825 1546.2C156.81 1459.89 86.5375 1390.24 0 1390.24C86.5375 1390.24 156.81 1320.59 157.825 1234.29C156.81 1147.98 86.5375 1078.33 0 1078.33C87.1702 1078.33 157.836 1007.66 157.836 920.481C157.836 1007.66 228.503 1078.33 315.673 1078.33C401.786 1078.33 471.794 1009.36 473.478 923.644C471.799 838.55 402.245 769.959 316.31 768.956C229.317 769.971 159.109 840.249 159.109 926.795C159.109 839.617 87.874 768.945 0 768.945C87.874 768.945 159.109 698.274 159.109 611.096C159.109 523.918 87.874 453.247 0 453.247C87.874 453.247 159.109 382.575 159.109 295.397C159.109 208.219 87.874 137.548 0 137.548C87.874 137.548 159.109 66.8765 159.109 -20.3013C159.109 -107.479 87.874 -178.151 0 -178.151C87.874 -178.151 159.109 -248.822 159.109 -336C159.109 -249.454 229.317 -179.177 316.31 -178.162C403.303 -179.177 473.509 -249.454 473.509 -336C473.509 -248.822 544.745 -178.151 632.618 -178.151C544.745 -178.151 473.509 -107.479 473.509 -20.3013C473.509 66.2442 543.716 136.522 630.709 137.537C717.703 136.522 787.909 66.2442 787.909 -20.3013C787.909 66.8765 859.144 137.548 947.018 137.548C859.144 137.548 787.909 208.219 787.909 295.397C787.909 382.575 859.144 453.247 947.018 453.247C859.144 453.247 787.909 523.918 787.909 611.096C787.909 698.274 859.144 768.945 947.018 768.945C859.144 768.945 787.909 839.617 787.909 926.795C787.909 840.249 717.703 769.971 630.709 768.956C544.775 769.959 475.219 838.55 473.54 923.644C475.224 1009.36 545.232 1078.33 631.345 1078.33C718.515 1078.33 789.182 1007.66 789.182 920.481C789.182 1007.66 859.848 1078.33 947.018 1078.33C860.48 1078.33 790.208 1147.98 789.193 1234.29C790.208 1320.59 860.48 1390.24 947.018 1390.24ZM631.345 1390.24C717.883 1390.24 788.156 1459.89 789.171 1546.2C788.156 1632.5 717.883 1702.15 631.345 1702.15C544.808 1702.15 474.535 1632.5 473.52 1546.2C474.535 1459.89 544.808 1390.24 631.345 1390.24ZM631.345 1390.24C544.808 1390.24 474.535 1320.59 473.52 1234.29C474.535 1147.98 544.808 1078.33 631.345 1078.33C717.883 1078.33 788.156 1147.98 789.171 1234.29C788.156 1320.59 717.883 1390.24 631.345 1390.24ZM947.018 1390.24C860.48 1390.24 790.208 1459.89 789.193 1546.2C790.208 1632.5 860.48 1702.15 947.018 1702.15C1033.56 1702.15 1103.83 1632.5 1104.84 1546.2C1103.83 1459.89 1033.56 1390.24 947.018 1390.24ZM473.509 611.096C473.509 697.642 403.303 767.919 316.31 768.934C229.317 767.919 159.109 697.642 159.109 611.096C159.109 524.551 229.317 454.273 316.31 453.258C403.303 454.273 473.509 524.551 473.509 611.096ZM473.509 611.096C473.509 524.551 543.716 454.273 630.709 453.258C717.703 454.273 787.909 524.551 787.909 611.096C787.909 697.642 717.703 767.919 630.709 768.934C543.716 767.919 473.509 697.642 473.509 611.096ZM473.509 295.397C473.509 381.943 403.303 452.221 316.31 453.236C229.317 452.221 159.109 381.943 159.109 295.397C159.109 208.852 229.317 138.574 316.31 137.559C403.303 138.574 473.509 208.852 473.509 295.397ZM473.509 295.397C473.509 208.852 543.716 138.574 630.709 137.559C717.703 138.574 787.909 208.852 787.909 295.397C787.909 381.943 717.703 452.221 630.709 453.236C543.716 452.221 473.509 381.943 473.509 295.397ZM473.509 -20.3013C473.509 66.2442 403.303 136.522 316.31 137.537C229.317 136.522 159.109 66.2442 159.109 -20.3013C159.109 -106.847 229.317 -177.125 316.31 -178.14C403.303 -177.125 473.509 -106.847 473.509 -20.3013ZM315.673 1390.24C402.21 1390.24 472.483 1459.89 473.498 1546.2C472.483 1632.5 402.21 1702.15 315.673 1702.15C229.135 1702.15 158.862 1632.5 157.847 1546.2C158.862 1459.89 229.135 1390.24 315.673 1390.24ZM315.673 1390.24C229.135 1390.24 158.862 1320.59 157.847 1234.29C158.862 1147.98 229.135 1078.33 315.673 1078.33C402.21 1078.33 472.483 1147.98 473.498 1234.29C472.483 1320.59 402.21 1390.24 315.673 1390.24Z" fill="#02B576"/>
</svg>
