<svg width="580" height="386" viewBox="0 0 580 386" fill="none" xmlns="http://www.w3.org/2000/svg">
<g opacity="0.3">
<path d="M259.136 74.5127H411.928V227.203H259.136V74.5127Z" fill="#02B576"/>
<path d="M185.525 383.284L281.954 227.203L411.964 307.416L363.75 385.457L185.525 383.284Z" fill="#02B576"/>
<path d="M154.415 285.063C119.427 279.976 95.191 247.508 100.282 212.544L231.215 231.581L221.997 294.89L154.415 285.063Z" fill="#02B576"/>
<path d="M114.587 109.326L161.391 212.588L101.454 204.313L114.587 109.326Z" fill="#02B576"/>
<path d="M425.985 266.291L580 386H425.985V266.291Z" fill="#02B576"/>
<path d="M97.2471 104.077L0 114.333L3.14307 144.095L100.39 133.839L97.2471 104.077Z" fill="#02B576"/>
<path d="M53.8185 67.3422L92.4908 93.4564L60.0887 99.7225L53.8185 67.3422Z" fill="#02B576"/>
<path d="M372.202 0L411.928 68.4051H332.476L372.202 0Z" fill="#02B576"/>
</g>
</svg>
