<svg width="46" height="58" viewBox="0 0 46 58" fill="none" xmlns="http://www.w3.org/2000/svg">
<path fill-rule="evenodd" clip-rule="evenodd" d="M10.3591 18.5897V13.0128C10.3591 5.826 16.1851 0 23.3719 0C30.5587 0 36.3847 5.826 36.3847 13.0128V18.5897H45.3078V58H0.692383V18.5897H10.3591ZM17.795 13.0128C17.795 9.93244 20.2919 7.4359 23.3719 7.4359C26.4519 7.4359 28.9488 9.93244 28.9488 13.0128V18.5897H17.795V13.0128ZM23.3719 39.4103C20.2919 39.4103 17.795 36.9137 17.795 33.8333V29C17.795 26.9464 16.1304 25.2821 14.077 25.2821C12.0236 25.2821 10.3591 26.9464 10.3591 29V33.8333C10.3591 41.0202 16.1851 46.8462 23.3719 46.8462C30.5587 46.8462 36.3847 41.0202 36.3847 33.8333V29C36.3847 26.9464 34.7202 25.2821 32.6668 25.2821C30.6133 25.2821 28.9488 26.9464 28.9488 29V33.8333C28.9488 36.9137 26.4519 39.4103 23.3719 39.4103Z" fill="black"/>
</svg>
